PathFileType  4	(X/Y/Z) C:\Users\antoi\Documents\MyRepositories\mobilecap\ResultsAnalysis
DataRate	CameraRate	NumFrames	NumMarkers	Units	OrigDataRate	OrigDataStartFrame	OrigNumFrames
100.0	100.0	4	51	mm	100.0	225	299
Frame#	Time	r_knee			r_shank_antsup			r_ankle			r_calc			r_5meta			r_toe			L_knee			L_shank_antsup			L_ankle			L_calc			L_5meta			L_toe			r_sh2			r_sh3			r_sh4			L_sh2			L_sh3			r_thigh1			r_thigh2			r_thigh3			r_thigh4			r_thigh5			L_thigh1			L_thigh2			L_thigh3			L_thigh4			r.ASIS			r.PSIS			L.ASIS			L.PSIS			C7			R_Shoulder			L_Shoulder			R_Sternum			L_Sternum			R_humerus			R_elbow_med			R_elbow_lat			R_forearm			R_wrist_radius			R_wrist_ulna			L_humerus			L_elbow_med			L_elbow_lat			L_forearm			L_wrist_radius			L_wrist_ulna			R_HJC			L_HJC			R_HJC_reg			L_HJC_reg			
		X1	Y1	Z1	X2	Y2	Z2	X3	Y3	Z3	X4	Y4	Z4	X5	Y5	Z5	X6	Y6	Z6	X7	Y7	Z7	X8	Y8	Z8	X9	Y9	Z9	X10	Y10	Z10	X11	Y11	Z11	X12	Y12	Z12	X13	Y13	Z13	X14	Y14	Z14	X15	Y15	Z15	X16	Y16	Z16	X17	Y17	Z17	X18	Y18	Z18	X19	Y19	Z19	X20	Y20	Z20	X21	Y21	Z21	X22	Y22	Z22	X23	Y23	Z23	X24	Y24	Z24	X25	Y25	Z25	X26	Y26	Z26	X27	Y27	Z27	X28	Y28	Z28	X29	Y29	Z29	X30	Y30	Z30	X31	Y31	Z31	X32	Y32	Z32	X33	Y33	Z33	X34	Y34	Z34	X35	Y35	Z35	X36	Y36	Z36	X37	Y37	Z37	X38	Y38	Z38	X39	Y39	Z39	X40	Y40	Z40	X41	Y41	Z41	X42	Y42	Z42	X43	Y43	Z43	X44	Y44	Z44	X45	Y45	Z45	X46	Y46	Z46	X47	Y47	Z47	X48	Y48	Z48	X49	Y49	Z49	X50	Y50	Z50	X51	Y51	Z51	

225	2.24000000	-220.98558	735.37414	-336.57838	-190.79562	627.40532	-329.51948	-257.76661	353.57188	-346.34548	-287.41217	369.94126	-408.89950	-227.27137	224.25062	-317.89739	-177.73763	209.04700	-346.05361	-237.12283	785.24321	-784.23703	-188.05826	678.55736	-774.56259	-284.91511	413.47403	-839.34384	-317.08474	419.34534	-786.38114	-253.46546	274.53459	-868.15484	-198.44408	258.82081	-832.30584	-195.35133	514.88833	-332.68790	-260.07134	626.68002	-299.62492	-275.56031	517.13635	-318.74928	-252.60056	717.54900	-825.62728	-270.89354	600.34654	-858.13091	-133.70377	1041.80664	-350.95513	-128.28804	934.06415	-340.87500	-176.83050	907.94460	-304.38400	-244.27744	1033.45884	-330.79483	-231.36752	919.38822	-311.22941	-171.29596	1074.30653	-743.23213	-161.55373	935.45779	-774.99121	-282.35145	1070.86423	-738.14224	-272.33695	932.38202	-767.80115	-89.68594	1185.86423	-409.86429	-261.85781	1270.56842	-454.08810	-107.38797	1220.67906	-651.50209	-271.92589	1289.76959	-564.09142	-210.70937	1710.12812	-472.43023	-174.56569	1725.66700	-388.55509	-163.24618	1689.03339	-598.05864	-78.01945	1671.27794	-466.70242	-74.98867	1672.79775	-494.55851	-149.24576	1786.27825	-319.41147	-50.09309	1830.71389	-141.73994	-109.15653	1876.40030	-163.77512	-59.77519	1992.65604	-199.18714	-7.53177	2071.18660	-232.71551	-16.33542	2085.97130	-202.65048	-140.47073	1808.62373	-642.37793	-20.21206	1861.10151	-795.41086	-79.99325	1901.80690	-784.22651	-54.22333	1998.96539	-793.50890	-2.14335	2110.14150	-840.10625	-1.86142	2105.96256	-862.52247	-192.64818	1136.68662	-435.20469	-203.04690	1160.25943	-622.82069	-174.98257	1133.63452	-446.06982	-189.48818	1161.29514	-604.56950	
226	2.25000000	-225.84059	750.68582	-333.90077	-190.09386	641.84657	-328.40491	-255.71574	366.58135	-342.71320	-286.88465	382.67715	-404.45714	-222.78949	236.84424	-316.11892	-173.69950	223.06395	-345.32009	-235.43050	798.28444	-782.53444	-188.14979	691.84256	-771.62941	-285.33440	426.61277	-838.35639	-316.30949	431.19141	-784.21371	-252.11550	288.41249	-869.22831	-195.62766	273.67097	-835.37832	-193.67767	529.11079	-330.90371	-258.02916	640.51973	-295.62736	-273.45973	530.84081	-313.61072	-251.46691	731.14980	-823.98662	-268.72183	615.59010	-859.32573	-131.22255	1051.36881	-347.46746	-129.66690	943.64942	-336.49907	-180.58457	918.88481	-302.01638	-241.95066	1047.32499	-327.15017	-234.18269	932.49401	-311.46048	-167.11929	1087.79133	-740.73159	-157.39744	948.40881	-771.89380	-278.09245	1084.86985	-739.02376	-268.33008	946.15359	-767.93777	-87.55086	1199.81553	-404.11952	-260.05549	1282.05308	-455.67554	-104.20537	1233.15318	-648.46025	-269.79399	1300.99910	-565.02599	-210.59052	1725.06823	-470.85007	-173.66427	1738.02687	-384.66159	-163.70920	1706.79908	-596.93230	-79.00698	1683.52763	-465.50794	-75.50999	1686.19095	-492.57619	-148.50876	1796.48999	-312.49087	-52.52602	1832.40857	-131.32119	-110.70238	1879.63385	-151.44830	-59.01470	1995.90602	-183.03179	-5.06070	2074.90018	-211.84439	-14.49318	2088.99526	-181.42789	-140.87834	1821.30984	-646.72937	-25.91287	1869.14931	-805.20499	-84.05895	1910.80508	-791.63017	-56.89598	2007.83289	-803.00200	-1.71083	2116.04001	-850.87210	-5.69507	2113.00906	-874.89365	-190.44429	1149.69733	-432.75471	-198.07258	1171.28525	-620.74533	-171.63941	1144.65492	-441.45475	-185.90057	1172.39338	-601.57082	
227	2.26000000	-231.04526	765.41131	-331.50815	-189.54793	655.29074	-327.07803	-252.89268	379.13167	-339.24417	-284.65441	394.24963	-401.68729	-218.63985	248.70937	-313.90448	-169.18180	236.27183	-342.67816	-233.90583	810.88252	-780.93358	-188.48328	704.84159	-770.92708	-285.46014	438.92564	-837.46568	-315.11784	442.55940	-782.20766	-250.98791	301.30558	-869.92175	-193.17551	287.53930	-837.98977	-191.55837	541.98927	-329.42768	-256.29702	653.16971	-292.14963	-271.12412	543.28287	-309.29895	-252.85492	743.79097	-821.87157	-269.34390	629.00998	-858.74725	-128.84928	1060.96617	-344.95450	-131.09216	953.05129	-333.12907	-184.59497	929.87933	-300.98824	-239.48143	1061.11154	-324.12936	-237.13839	946.05167	-312.35340	-163.51502	1100.63774	-737.92943	-153.54815	961.13394	-768.07325	-274.45734	1098.42189	-740.26099	-264.54747	959.52219	-768.10016	-85.78381	1211.46028	-398.96835	-257.92080	1292.72058	-456.09357	-100.92365	1245.63854	-644.54714	-267.94081	1311.36682	-565.70002	-210.49322	1738.87092	-469.20284	-172.48901	1749.46049	-380.77062	-164.55088	1723.48909	-595.80646	-79.75382	1695.37387	-464.57323	-76.13576	1699.00065	-490.68754	-148.20049	1805.21795	-305.74202	-55.06571	1832.48396	-121.50047	-112.32922	1881.19309	-140.28860	-57.92221	1997.65093	-166.87170	-1.86108	2077.18727	-190.29906	-12.07677	2090.41007	-159.04830	-140.62388	1833.63914	-651.40383	-31.46445	1875.20653	-814.54938	-87.80945	1917.93179	-798.85355	-58.80153	2014.68509	-812.42856	-0.37750	2119.94448	-861.99658	-8.40384	2116.96024	-888.03603	-188.57785	1161.05938	-430.72710	-193.32902	1182.22034	-618.85733	-168.52237	1155.96761	-436.31167	-183.23713	1183.35404	-597.28676	
228	2.27000000	-234.11471	778.53823	-329.62703	-189.61062	667.52080	-325.06437	-250.56789	390.42610	-336.66545	-282.03790	404.85278	-399.98986	-215.94954	260.21488	-310.62676	-165.62167	248.53536	-338.13887	-233.47476	822.86113	-779.49277	-189.07106	717.31024	-772.16589	-284.91275	450.42136	-836.51118	-313.58241	453.40763	-780.65179	-250.02482	313.45844	-870.58230	-191.36012	299.95086	-839.83641	-190.11081	553.57873	-327.34051	-256.07533	664.77741	-289.89194	-269.99436	554.80087	-306.61946	-255.97986	755.48820	-820.21324	-272.36222	639.84667	-855.79142	-127.05679	1071.40691	-342.83778	-132.04775	963.45488	-330.38399	-187.13230	941.51702	-300.08752	-237.83064	1074.30303	-323.48885	-239.08296	959.37537	-312.37903	-160.27654	1112.59492	-735.09226	-150.29197	973.27494	-764.70833	-271.14839	1111.26713	-740.74969	-261.26546	972.28522	-768.04418	-84.03408	1221.57182	-395.11602	-255.70711	1303.00214	-455.28243	-97.95976	1257.63722	-640.69753	-266.28303	1320.93622	-565.81650	-210.23451	1751.06013	-467.72573	-171.29009	1759.51631	-377.30669	-165.13591	1738.78490	-594.76768	-80.12423	1706.51660	-464.06554	-76.60535	1711.09331	-489.27123	-147.36207	1811.70228	-299.38104	-57.89398	1831.22251	-112.06759	-114.06378	1881.34774	-130.41629	-56.68343	1997.77374	-150.75179	1.80866	2077.02367	-168.43250	-9.23132	2089.74940	-136.94450	-139.72453	1845.39516	-656.07110	-36.76877	1879.11186	-822.77021	-91.34978	1923.09959	-805.64547	-60.38536	2019.10885	-821.78830	1.24710	2121.82612	-873.63819	-10.57300	2118.15117	-901.56638	-186.71512	1171.28844	-428.98259	-189.35028	1192.83267	-617.11291	-165.90809	1167.82657	-431.47915	-181.33528	1193.99166	-592.72111	
